<?xml version="1.0" encoding="utf-8"?>
<!-- Generator: Adobe Illustrator 17.0.0, SVG Export Plug-In . SVG Version: 6.00 Build 0)  -->
<!DOCTYPE svg PUBLIC "-//W3C//DTD SVG 1.0//EN" "http://www.w3.org/TR/2001/REC-SVG-20010904/DTD/svg10.dtd">
<svg version="1.0" id="Layer_1" xmlns="http://www.w3.org/2000/svg" xmlns:xlink="http://www.w3.org/1999/xlink" x="0px" y="0px"
	 width="300px" height="300px" viewBox="0 0 300 300" enable-background="new 0 0 300 300" xml:space="preserve">
<g>
	<polygon stroke="#000000" stroke-width="12" stroke-linecap="round" stroke-linejoin="round" stroke-miterlimit="10" points="
		106.952,106.511 127.952,80.334 165.952,78.465 189.952,107.446 	"/>
	<g>
		<linearGradient id="SVGID_1_" gradientUnits="userSpaceOnUse" x1="15.8841" y1="85.6345" x2="224.6964" y2="201.3081">
			<stop  offset="0" style="stop-color:#FFFFFF"/>
			<stop  offset="1" style="stop-color:#000000"/>
		</linearGradient>
		<path fill="url(#SVGID_1_)" d="M26.462,104.082c3.325,41.008-6.099,76.848,4.587,117.453c56.997-4.5,153.492-0.001,240.139-2.701
			c-1.151-40.797,4.369-76.838,2.732-117.758c-62.381,5.965-189.526,10.814-242.682-1.452"/>
		<g>
			<path d="M23.462,104.082c3.022,39.532-5.284,79.268,4.694,118.25c0.311,1.215,1.594,2.303,2.893,2.202
				c35.913-2.783,72.091-2.217,108.081-2.03c44.019,0.229,88.051,0.674,132.058-0.671c1.602-0.049,3.043-1.328,3-3
				c-1.008-39.299,4.198-78.456,2.732-117.758c-0.056-1.513-1.327-3.159-3-3c-40.973,3.893-82.209,5.656-123.355,6.097
				c-22.162,0.237-44.345-0.021-66.478-1.236c-17.407-0.955-35.015-2.331-52.05-6.206c-3.767-0.857-5.367,4.928-1.595,5.786
				c16.732,3.806,34.007,5.234,51.099,6.273c22.011,1.338,44.089,1.578,66.135,1.409c42.103-0.322,84.322-2.14,126.245-6.123
				c-1-1-2-2-3-3c1.465,39.302-3.741,78.459-2.732,117.758c1-1,2-2,3-3c-43.426,1.328-86.878,0.918-130.317,0.681
				c-36.568-0.2-73.332-0.807-109.822,2.021c0.964,0.734,1.929,1.468,2.893,2.202c-9.83-38.405-1.502-77.693-4.48-116.655
				C29.169,100.25,23.167,100.221,23.462,104.082L23.462,104.082z"/>
		</g>
	</g>
	<g>
		
			<linearGradient id="SVGID_2_" gradientUnits="userSpaceOnUse" x1="171.0387" y1="200.0949" x2="146.7183" y2="161.713" gradientTransform="matrix(0.9282 0.3722 -0.3722 0.9282 59.7643 -40.5099)">
			<stop  offset="0" style="stop-color:#FFFFFF"/>
			<stop  offset="1" style="stop-color:#000000"/>
		</linearGradient>
		<path fill="url(#SVGID_2_)" d="M170.229,127.707c-39.425-35.593-105.116,20.564-74.106,65.158
			c38.887,55.924,120.046-9.226,74.759-60.737"/>
		<g>
			<path d="M172.35,125.586c-28.869-25.419-72.347-6.543-84.597,26.993c-6.576,18.002-0.307,36.586,12.5,50.032
				c11.681,12.264,28.518,17.1,44.93,13.365c16.82-3.828,31.482-16.665,38.177-32.434c7.961-18.752,2.587-38.52-10.357-53.534
				c-2.531-2.935-6.755,1.328-4.243,4.243c12.174,14.121,16.288,32.65,7.826,49.73c-7.104,14.339-21.835,25.116-37.764,27.078
				c-18.887,2.326-35.478-9.562-43.797-25.944c-8.709-17.151-2.031-36.855,10.736-49.866c16.638-16.955,43.664-21.869,62.346-5.419
				C170.999,132.375,175.259,128.148,172.35,125.586L172.35,125.586z"/>
		</g>
	</g>
	<g>
		<g>
			<path d="M40.698,125.716c9.673,0,9.673-15,0-15S31.025,125.716,40.698,125.716L40.698,125.716z"/>
		</g>
	</g>
	<g>
		<g>
			<path d="M56.698,125.716c9.673,0,9.673-15,0-15S47.025,125.716,56.698,125.716L56.698,125.716z"/>
		</g>
	</g>
	<g>
		<g>
			<path d="M136.698,203.716c20.442,0,37.5-17.058,37.5-37.5s-17.058-37.5-37.5-37.5s-37.5,17.058-37.5,37.5
				S116.256,203.716,136.698,203.716L136.698,203.716z"/>
		</g>
	</g>
	<g>
		<g>
			<path fill="#808080" d="M135.698,197.716c17.171,0,31.5-14.329,31.5-31.5s-14.329-31.5-31.5-31.5s-31.5,14.329-31.5,31.5
				S118.526,197.716,135.698,197.716L135.698,197.716z"/>
		</g>
	</g>
	
		<line fill="none" stroke="#000000" stroke-width="12" stroke-linecap="round" stroke-miterlimit="10" x1="214.952" y1="100.465" x2="248.952" y2="97.465"/>
	
		<line fill="none" stroke="#000000" stroke-width="12" stroke-linecap="round" stroke-miterlimit="10" x1="44.952" y1="93.465" x2="80.952" y2="95.465"/>
	<g>
		<g>
			<path fill="#1A1A1A" d="M137.698,198.216c16.354,0,30-13.646,30-30s-13.646-30-30-30s-30,13.646-30,30
				S121.344,198.216,137.698,198.216L137.698,198.216z"/>
		</g>
	</g>
	<g>
		<g>
			<path fill="#B3B3B3" d="M132.698,183.716c10.63,0,19.5-8.87,19.5-19.5c0-10.63-8.87-19.5-19.5-19.5s-19.5,8.87-19.5,19.5
				C113.198,174.846,122.068,183.716,132.698,183.716L132.698,183.716z"/>
		</g>
	</g>
	<g>
		<g>
			<path d="M135.698,188.216c11.448,0,21-9.552,21-21c0-11.448-9.552-21-21-21c-11.448,0-21,9.552-21,21
				C114.698,178.664,124.25,188.216,135.698,188.216L135.698,188.216z"/>
		</g>
	</g>
	<g opacity="0.5">
		
			<linearGradient id="SVGID_3_" gradientUnits="userSpaceOnUse" x1="108.237" y1="163.9535" x2="189.1781" y2="163.9535" gradientTransform="matrix(0.9282 0.3722 -0.3722 0.9282 59.7643 -40.5099)">
			<stop  offset="0" style="stop-color:#E5E2DF"/>
			<stop  offset="0" style="stop-color:#D6D7D7"/>
			<stop  offset="0" style="stop-color:#D1D3D4"/>
			<stop  offset="0.0676" style="stop-color:#EDEEEE"/>
			<stop  offset="0.1067" style="stop-color:#FFFFFF"/>
			<stop  offset="0.1302" style="stop-color:#F5F5F6"/>
			<stop  offset="0.1697" style="stop-color:#DBDCDD"/>
			<stop  offset="0.2201" style="stop-color:#B1B2B4"/>
			<stop  offset="0.2472" style="stop-color:#97999C"/>
			<stop  offset="0.2718" style="stop-color:#9A9C9E"/>
			<stop  offset="0.2866" style="stop-color:#A2A4A7"/>
			<stop  offset="0.2987" style="stop-color:#B0B2B4"/>
			<stop  offset="0.3095" style="stop-color:#C4C6C8"/>
			<stop  offset="0.3146" style="stop-color:#D1D3D4"/>
			<stop  offset="0.3637" style="stop-color:#C7C9CA"/>
			<stop  offset="0.4464" style="stop-color:#ADAFB0"/>
			<stop  offset="0.5518" style="stop-color:#838586"/>
			<stop  offset="0.6461" style="stop-color:#58595B"/>
			<stop  offset="0.6777" style="stop-color:#616265"/>
			<stop  offset="0.7307" style="stop-color:#7A7C7F"/>
			<stop  offset="0.7416" style="stop-color:#808285"/>
			<stop  offset="0.743" style="stop-color:#797A7D"/>
			<stop  offset="0.7501" style="stop-color:#5A595C"/>
			<stop  offset="0.7574" style="stop-color:#424041"/>
			<stop  offset="0.7648" style="stop-color:#312D2F"/>
			<stop  offset="0.7725" style="stop-color:#262324"/>
			<stop  offset="0.7809" style="stop-color:#231F20"/>
			<stop  offset="0.7899" style="stop-color:#4B4848"/>
			<stop  offset="0.8021" style="stop-color:#7A7878"/>
			<stop  offset="0.8146" style="stop-color:#A3A1A2"/>
			<stop  offset="0.8274" style="stop-color:#C4C3C3"/>
			<stop  offset="0.8403" style="stop-color:#DEDEDE"/>
			<stop  offset="0.8535" style="stop-color:#F0F0F0"/>
			<stop  offset="0.8672" style="stop-color:#FBFBFB"/>
			<stop  offset="0.882" style="stop-color:#FFFFFF"/>
			<stop  offset="0.8972" style="stop-color:#EAEBEC"/>
			<stop  offset="0.9214" style="stop-color:#D0D2D3"/>
			<stop  offset="0.9463" style="stop-color:#BEBFC2"/>
			<stop  offset="0.972" style="stop-color:#B3B5B7"/>
			<stop  offset="1" style="stop-color:#AFB1B4"/>
		</linearGradient>
		<path fill="url(#SVGID_3_)" d="M165.47,135.012c-33.819-30.532-90.169,17.64-63.569,55.894
			c33.358,47.972,102.976-7.914,64.129-52.101L165.47,135.012z"/>
	</g>
	<g>
		<g>
			<path fill="#666666" d="M235.698,208.716c9.673,0,9.673-15,0-15S226.025,208.716,235.698,208.716L235.698,208.716z"/>
		</g>
	</g>
</g>
</svg>
