<?xml version="1.0" encoding="iso-8859-1"?>
<svg
  xmlns="http://www.w3.org/2000/svg"
  xmlns:xlink="http://www.w3.org/1999/xlink"
  viewBox="0 0 512 512"
  style="enable-background: new 0 0 512 512"
  xml:space="preserve"
>
  <g>
    <g>
      <path
        d="M477.867,137.387v-17.92c0-9.426-7.641-17.067-17.067-17.067h-59.733c-9.426,0-17.067,7.641-17.067,17.067v17.067h-2.731    l-23.381-58.539c-6.497-16.211-22.216-26.826-39.68-26.795H186.709c-18.357,0.014-34.647,11.768-40.448,29.184l-18.688,56.149    H42.667C19.103,136.533,0,155.636,0,179.2v238.933C0,441.698,19.103,460.8,42.667,460.8h426.667    c23.564,0,42.667-19.103,42.667-42.667V179.2C512.004,158.922,497.735,141.442,477.867,137.387z M401.067,119.467H460.8v17.067    h-59.733V119.467z M494.933,418.133c0,14.138-11.461,25.6-25.6,25.6H42.667c-14.138,0-25.6-11.461-25.6-25.6V179.2    c0-14.138,11.462-25.6,25.6-25.6h91.051c3.669,0.009,6.933-2.327,8.107-5.803l20.309-62.037    c3.522-10.551,13.453-17.621,24.576-17.493h131.499c10.47-0.024,19.899,6.33,23.808,16.043l25.6,63.915    c1.282,3.22,4.385,5.345,7.851,5.376h93.867c14.138,0,25.6,11.461,25.6,25.6V418.133z"
      />
    </g>
  </g>
  <g>
    <g>
      <path
        d="M256,162.133c-65.98,0-119.467,53.487-119.467,119.467S190.02,401.067,256,401.067S375.467,347.58,375.467,281.6    S321.98,162.133,256,162.133z M256,384c-56.554,0-102.4-45.846-102.4-102.4S199.446,179.2,256,179.2    c56.554,0,102.4,45.846,102.4,102.4S312.554,384,256,384z"
      />
    </g>
  </g>
  <g>
    <g>
      <path
        d="M256,196.267c-47.128,0-85.333,38.205-85.333,85.333s38.205,85.333,85.333,85.333s85.333-38.205,85.333-85.333    S303.128,196.267,256,196.267z M256,349.867c-37.703,0-68.267-30.564-68.267-68.267s30.564-68.267,68.267-68.267    s68.267,30.564,68.267,68.267S293.703,349.867,256,349.867z"
      />
    </g>
  </g>
  <g></g>
  <g></g>
  <g></g>
  <g></g>
  <g></g>
  <g></g>
  <g></g>
  <g></g>
  <g></g>
  <g></g>
  <g></g>
  <g></g>
  <g></g>
  <g></g>
  <g></g>
</svg>
