<?xml version="1.0" encoding="utf-8"?>
<!-- Generator: Adobe Illustrator 17.0.0, SVG Export Plug-In . SVG Version: 6.00 Build 0)  -->
<!DOCTYPE svg PUBLIC "-//W3C//DTD SVG 1.0//EN" "http://www.w3.org/TR/2001/REC-SVG-20010904/DTD/svg10.dtd">
<svg version="1.0" id="Layer_1" xmlns="http://www.w3.org/2000/svg" xmlns:xlink="http://www.w3.org/1999/xlink" x="0px" y="0px"
	 width="300px" height="300px" viewBox="0 0 300 300" enable-background="new 0 0 300 300" xml:space="preserve">
<g>
	<g>
		<radialGradient id="SVGID_1_" cx="39.0056" cy="100.5025" r="244.5834" gradientUnits="userSpaceOnUse">
			<stop  offset="0.0056" style="stop-color:#FFFFFF"/>
			<stop  offset="1" style="stop-color:#FFFFFF;stop-opacity:0"/>
		</radialGradient>
		<path fill="url(#SVGID_1_)" d="M22.843,97.877c-2.888,34.653-24.716,126.626,26.86,126.626
			c71.997-3.428,145.278-16.571,217.438-9.806c3.56-35.605,43.175-148.257-12.151-138.617
			c-61.619,10.737-145.905,26.299-207.846,16.255"/>
		<g>
			<path d="M19.843,97.877c-2.736,31.87-11.037,64.143-5.025,96.155c2.502,13.322,8.943,26.077,22.108,31.326
				c9.959,3.971,21.783,1.709,32.091,1.015c16.181-1.09,32.336-2.557,48.486-4.027c49.724-4.524,99.734-9.205,149.638-4.65
				c1.75,0.16,2.843-1.495,3-3c1.436-13.787,5.164-27.415,8.077-40.939c3.611-16.761,7-33.652,8.451-50.758
				c1.092-12.867,1.55-27.907-5.149-39.478c-7.24-12.505-20.743-11.486-33.124-9.323c-33.133,5.789-66.296,11.505-99.756,15.074
				c-33.274,3.55-67.502,5.431-100.698,0.168c-3.784-0.6-5.408,5.181-1.595,5.786c53.417,8.468,108.816,0.422,161.715-8.101
				c13.014-2.097,26-4.359,38.985-6.628c7.066-1.235,15.142-3.602,22.097-0.539c11.117,4.897,11.982,20.496,12.052,30.852
				c0.238,35.492-13.416,68.951-17.054,103.884c1-1,2-2,3-3c-64.879-5.922-129.632,3.73-194.255,8.406
				c-11.055,0.8-23.651,3.387-34.365-0.53c-6.152-2.249-10.513-7.428-13.436-13.085c-7.295-14.121-6.74-32.165-5.971-47.574
				c1.022-20.492,4.977-40.63,6.729-61.038C26.174,94.02,20.171,94.052,19.843,97.877L19.843,97.877z"/>
		</g>
	</g>
	<linearGradient id="SVGID_2_" gradientUnits="userSpaceOnUse" x1="200.7146" y1="165.604" x2="189.4164" y2="114.5371">
		<stop  offset="0" style="stop-color:#FFFFFF"/>
		<stop  offset="0.8621" style="stop-color:#000000"/>
	</linearGradient>
	<path fill="url(#SVGID_2_)" d="M273.293,97.436c0,0-88,75-158,78c2,24.333,125-33,125-33L273.293,97.436z"/>
	<g>
		<g>
			<path d="M23.092,94.276c24.266,23.731,46.684,49.357,73.809,70.004c5.953,4.531,12.23,8.851,19.091,11.891
				c6.155,2.727,11.24,2.914,17.835,1.893c23.638-3.662,46.289-14.229,67.106-25.598c25.717-14.045,50.301-31.157,71.844-51.057
				c2.848-2.631-1.406-6.863-4.243-4.243c-17.784,16.428-37.655,30.59-58.367,43.073c-21.465,12.937-44.517,24.322-68.979,30.246
				c-7.371,1.785-14.325,3.516-21.553,0.753c-6.828-2.61-13.057-7.186-18.874-11.513c-15.547-11.565-29.553-25.298-43.251-38.951
				c-10.168-10.135-19.912-20.703-30.175-30.741C24.568,87.327,20.322,91.567,23.092,94.276L23.092,94.276z"/>
		</g>
	</g>
	<g>
		<g>
			<path fill="#666666" d="M234.327,205.652c9.673,0,9.673-15,0-15C224.654,190.652,224.654,205.652,234.327,205.652
				L234.327,205.652z"/>
		</g>
	</g>
	<g>
		<g>
			<path fill="#999999" d="M216.557,204.652c9.673,0,9.673-15,0-15C206.884,189.652,206.884,204.652,216.557,204.652
				L216.557,204.652z"/>
		</g>
	</g>
	<g>
		<g>
			<path d="M253.097,205.319c9.673,0,9.673-15,0-15C243.424,190.319,243.424,205.319,253.097,205.319L253.097,205.319z"/>
		</g>
	</g>
</g>
</svg>
