<?xml version="1.0" encoding="utf-8"?>
<!-- Generator: Adobe Illustrator 17.0.0, SVG Export Plug-In . SVG Version: 6.00 Build 0)  -->
<!DOCTYPE svg PUBLIC "-//W3C//DTD SVG 1.0//EN" "http://www.w3.org/TR/2001/REC-SVG-20010904/DTD/svg10.dtd">
<svg version="1.0" id="Layer_1" x="0px" y="0px"
	 width="300px" height="300px" viewBox="0 0 300 300" enable-background="new 0 0 300 300" xml:space="preserve">
<g>
	<g>
		<linearGradient id="SVGID_1_" gradientUnits="userSpaceOnUse" x1="197.2191" y1="264.2986" x2="35.9102" y2="-108.6612">
			<stop  offset="0" style="stop-color:#FFFFFF"/>
			<stop  offset="0.1561" style="stop-color:#C2C2C2"/>
			<stop  offset="0.3241" style="stop-color:#888888"/>
			<stop  offset="0.4867" style="stop-color:#575757"/>
			<stop  offset="0.6396" style="stop-color:#313131"/>
			<stop  offset="0.7804" style="stop-color:#161616"/>
			<stop  offset="0.9049" style="stop-color:#060606"/>
			<stop  offset="1" style="stop-color:#000000"/>
		</linearGradient>
		<path fill="url(#SVGID_1_)" d="M82.77,39.798c12.159,59.057,1.42,150.357-5.461,209.342
			c-3.377,28.944,146.65,24.602,145.431,4.574c-3.498-57.458-7.079-146.354-6.017-204.482
			C217.437,10.18,123.133,31.164,82.77,39.798"/>
		<g>
			<path d="M79.877,40.596c4.916,24.302,5.667,49.318,5.35,74.041c-0.343,26.789-2.376,53.545-4.957,80.201
				c-1.194,12.332-2.547,24.648-3.952,36.958c-0.611,5.357-1.236,10.712-1.861,16.067c-0.241,2.068-0.268,4.027,0.493,6.002
				c3.304,8.577,14.708,11.793,22.678,13.823c13.94,3.55,28.609,4.571,42.939,4.984c15.515,0.447,31.119-0.176,46.526-2.083
				c10.732-1.328,22.576-2.847,32.215-8.118c2.722-1.488,5.506-3.771,6.251-6.928c0.812-3.439-0.168-7.604-0.369-11.081
				c-0.354-6.122-0.687-12.245-1.008-18.368c-2.752-52.505-4.74-105.121-4.647-157.704c0.015-8.531,1.756-18.57-0.943-26.821
				c-1.772-5.418-5.987-9.455-10.883-12.142c-13.413-7.361-31.192-6.527-45.917-5.597c-26.931,1.7-53.495,7.443-79.821,13.077
				c-3.783,0.81-2.178,6.593,1.595,5.786c17.023-3.643,34.059-7.213,51.275-9.838c17.954-2.737,36.924-5.069,55.04-2.539
				c6.254,0.874,13.135,2.446,18.192,6.458c5.407,4.29,5.681,9.988,5.584,16.411c-0.379,25.203,0.049,50.419,0.691,75.614
				c0.686,26.931,1.727,53.854,3.008,80.763c0.576,12.088,1.213,24.172,1.913,36.253c0.153,2.634,0.31,5.268,0.47,7.902
				c0.029,0.482-0.035,0.599,0.001,0.518c-0.408,0.931-1.282,1.686-2.382,2.412c-8.629,5.692-21.15,6.816-31.11,8.049
				c-15.442,1.911-31.092,2.399-46.637,1.951c-14.213-0.41-28.689-1.553-42.459-5.287c-6.947-1.884-17.683-5.034-16.695-13.495
				c5.949-50.987,11.788-102.301,10.697-153.719c-0.392-18.467-1.825-37.017-5.492-55.143C84.896,35.21,79.113,36.818,79.877,40.596
				L79.877,40.596z"/>
		</g>
	</g>
	<g>
		<g>
			<path d="M145.299,63.367c13.542,0,13.542-21,0-21C131.756,42.367,131.756,63.367,145.299,63.367L145.299,63.367z"/>
		</g>
	</g>
	<g>
		<g>
			<path fill="#727272" d="M150.328,262.073c8.994,0,16.5-7.506,16.5-16.5s-7.506-16.5-16.5-16.5s-16.5,7.506-16.5,16.5
				S141.334,262.073,150.328,262.073L150.328,262.073z"/>
		</g>
	</g>
	<g>
		<g>
			<path fill="#F9F9F9" d="M150.076,260.194c19.346,0,19.346-30,0-30S130.73,260.194,150.076,260.194L150.076,260.194z"/>
		</g>
	</g>
	<g>
		<g>
			<path fill="#F9F9F9" d="M144.833,58.072c7.738,0,7.738-12,0-12S137.094,58.072,144.833,58.072L144.833,58.072z"/>
		</g>
	</g>
	<g>
		<g>
			<path d="M145.707,59.819c7.738,0,7.738-12,0-12S137.968,59.819,145.707,59.819L145.707,59.819z"/>
		</g>
	</g>
	<g>
		<g>
			<path d="M162.427,63.367c13.542,0,13.542-21,0-21C148.885,42.367,148.885,63.367,162.427,63.367L162.427,63.367z"/>
		</g>
	</g>
	<g>
		<g>
			<path fill="#F9F9F9" d="M162.31,57.198c7.738,0,7.738-12,0-12S154.571,57.198,162.31,57.198L162.31,57.198z"/>
		</g>
	</g>
	<g>
		<g>
			<path d="M163.184,58.945c7.738,0,7.738-12,0-12S155.445,58.945,163.184,58.945L163.184,58.945z"/>
		</g>
	</g>
</g>
</svg>
