<svg version="1.0" xmlns="http://www.w3.org/2000/svg" width="300" height="300"><linearGradient id="a" gradientUnits="userSpaceOnUse" x1="197.219" y1="264.299" x2="35.91" y2="-108.661"><stop offset="0" stop-color="#fff"/><stop offset=".156" stop-color="#c2c2c2"/><stop offset=".324" stop-color="#888"/><stop offset=".487" stop-color="#575757"/><stop offset=".64" stop-color="#313131"/><stop offset=".78" stop-color="#161616"/><stop offset=".905" stop-color="#060606"/><stop offset="1"/></linearGradient><path fill="url(#a)" d="M82.77 39.798c12.159 59.057 1.42 150.357-5.461 209.342-3.377 28.944 146.65 24.602 145.431 4.574-3.498-57.458-7.079-146.354-6.017-204.482.714-39.052-93.59-18.068-133.953-9.434"/><path d="M79.877 40.596c4.916 24.302 5.667 49.318 5.35 74.041-.343 26.789-2.376 53.545-4.957 80.201-1.194 12.332-2.547 24.648-3.952 36.958-.611 5.357-1.236 10.712-1.861 16.067-.241 2.068-.268 4.027.493 6.002 3.304 8.577 14.708 11.793 22.678 13.823 13.94 3.55 28.609 4.571 42.939 4.984 15.515.447 31.119-.176 46.526-2.083 10.732-1.328 22.576-2.847 32.215-8.118 2.722-1.488 5.506-3.771 6.251-6.928.812-3.439-.168-7.604-.369-11.081-.354-6.122-.687-12.245-1.008-18.368-2.752-52.505-4.74-105.121-4.647-157.704.015-8.531 1.756-18.57-.943-26.821-1.772-5.418-5.987-9.455-10.883-12.142-13.413-7.361-31.192-6.527-45.917-5.597-26.931 1.7-53.495 7.443-79.821 13.077-3.783.81-2.178 6.593 1.595 5.786 17.023-3.643 34.059-7.213 51.275-9.838 17.954-2.737 36.924-5.069 55.04-2.539 6.254.874 13.135 2.446 18.192 6.458 5.407 4.29 5.681 9.988 5.584 16.411-.379 25.203.049 50.419.691 75.614.686 26.931 1.727 53.854 3.008 80.763a3537.264 3537.264 0 001.913 36.253c.153 2.634.31 5.268.47 7.902.029.482-.035.599.001.518-.408.931-1.282 1.686-2.382 2.412-8.629 5.692-21.15 6.816-31.11 8.049-15.442 1.911-31.092 2.399-46.637 1.951-14.213-.41-28.689-1.553-42.459-5.287-6.947-1.884-17.683-5.034-16.695-13.495 5.949-50.987 11.788-102.301 10.697-153.719-.392-18.467-1.825-37.017-5.492-55.143-.766-3.793-6.549-2.185-5.785 1.593z"/><path d="M145.299 63.367c13.542 0 13.542-21 0-21-13.543 0-13.543 21 0 21z"/><path fill="#727272" d="M150.328 262.073c8.994 0 16.5-7.506 16.5-16.5s-7.506-16.5-16.5-16.5-16.5 7.506-16.5 16.5 7.506 16.5 16.5 16.5z"/><path fill="#F9F9F9" d="M150.076 260.194c19.346 0 19.346-30 0-30s-19.346 30 0 30zM144.833 58.072c7.738 0 7.738-12 0-12s-7.739 12 0 12z"/><path d="M145.707 59.819c7.738 0 7.738-12 0-12s-7.739 12 0 12z"/><path d="M162.427 63.367c13.542 0 13.542-21 0-21s-13.542 21 0 21z"/><g><path fill="#F9F9F9" d="M162.31 57.198c7.738 0 7.738-12 0-12s-7.739 12 0 12z"/></g><g><path d="M163.184 58.945c7.738 0 7.738-12 0-12s-7.739 12 0 12z"/></g></svg>