<?xml version="1.0" encoding="utf-8"?>
<!-- Generator: Adobe Illustrator 25.0.1, SVG Export Plug-In . SVG Version: 6.00 Build 0)  -->
<svg version="1.1" id="Layer_1" xmlns="http://www.w3.org/2000/svg" xmlns:xlink="http://www.w3.org/1999/xlink" x="0px" y="0px"
	 viewBox="0 0 512 512" style="enable-background:new 0 0 512 512;" xml:space="preserve">
<path d="M473.7,0H37C16.2,0-0.7,16.9-0.7,37.6v436.7c0,20.8,16.9,37.6,37.6,37.6h436.7c20.8,0,37.6-16.9,37.6-37.6V37.6
	C511.3,16.9,494.5,0,473.7,0z M407.3,130.5H278.5c0,0,0,248.7,0,260.1c0,32-46.6,45.6-79.7,45.6c-25.1,0-50.6-9.6-50.1-37.8
	c0.4-24,26.3-34.5,39.6-34.5c15.5,0,25.6-0.2,45.4,13.3V130.5H103.4V90.4h303.9V130.5z"/>
</svg>
